PathFileType	4	(X/Y/Z)	E:\Marcel_BSc\Ayumi_22_01_2025\22-01-2025\sumo_dl_2.trc
DataRate	CameraRate	NumFrames	NumMarkers	Units	OrigDataRate	OrigDataStartFrame	OrigNumFrames
200.0	200.0	5	47	mm	200.0	1434	2294	
Frame#	Time	LBHD			FHD			RBHD			RBAR			LBAR			RSACR			LSACR			USACR			C7			CLAV			T10			RSHO			LSHO			LTHI1			LTHI3			LTHI2			LTIB1			LTIB2			LTIB3			LMMAL			LLMAL			LHEE			LMT1			LMT5			LMT3			RTHI1			RTHI2			RTHI3			RTIB1			RTIB3			RTIB2			RLMAL			RMMAL			RHEE			RMT5			RMT1			RMT3			LDUPA			LMUPA			LUUPA			LRAD			RUL			RRAD			RUFIN			RMUPA			RDUPA			RUUPA			
		X1	Y1	Z1	X2	Y2	Z2	X3	Y3	Z3	X4	Y4	Z4	X5	Y5	Z5	X6	Y6	Z6	X7	Y7	Z7	X8	Y8	Z8	X9	Y9	Z9	X10	Y10	Z10	X11	Y11	Z11	X12	Y12	Z12	X13	Y13	Z13	X14	Y14	Z14	X15	Y15	Z15	X16	Y16	Z16	X17	Y17	Z17	X18	Y18	Z18	X19	Y19	Z19	X20	Y20	Z20	X21	Y21	Z21	X22	Y22	Z22	X23	Y23	Z23	X24	Y24	Z24	X25	Y25	Z25	X26	Y26	Z26	X27	Y27	Z27	X28	Y28	Z28	X29	Y29	Z29	X30	Y30	Z30	X31	Y31	Z31	X32	Y32	Z32	X33	Y33	Z33	X34	Y34	Z34	X35	Y35	Z35	X36	Y36	Z36	X37	Y37	Z37	X38	Y38	Z38	X39	Y39	Z39	X40	Y40	Z40	X41	Y41	Z41	X42	Y42	Z42	X43	Y43	Z43	X44	Y44	Z44	X45	Y45	Z45	X46	Y46	Z46	X47	Y47	Z47	
1434	7.16	97.475922	1440.2366	-894.20148	78.610748	1453.0282	-955.20239	119.29355	1425.6923	-1024.8643	259.14529	597.81866	-2063.3669	279.67245	564.06683	156.44142	486.20514	873.13898	-1000.4805	489.65213	874.76782	-928.15588	481.04272	884.88263	-963.88501	294.75507	1278.1304	-952.13635	188.35501	1159.3477	-952.28204	428.5733	1041.2991	-967.96643	183.40099	1180.902	-1111.6793	195.91364	1189.3171	-792.20184	405.32986	575.44452	-676.98334	401.05783	512.14709	-667.83752	362.59354	536.28235	-646.56763	350.50266	243.51091	-529.4292	387.15359	224.25677	-559.29333	357.69208	176.67088	-523.89453	294.05524	65.976509	-546.63757	350.69299	69.479118	-503.38489	356.10864	30.37467	-551.57867	207.30357	45.248646	-422.77972	274.35156	25.657164	-379.11487	227.4803	40.283146	-395.63986	401.86523	570.67523	-1238.926	357.02365	534.02032	-1270.8884	395.17795	507.28275	-1250.6667	353.01407	274.87274	-1375.5382	361.59491	209.96458	-1380.6943	389.95203	258.52539	-1346.1816	355.19083	69.43129	-1407.7839	284.50418	67.312866	-1379.1519	355.82431	30.973429	-1357.2769	289.056	26.716721	-1536.3075	227.30859	37.32798	-1508.8219	250.25577	34.565277	-1529.4968	331.30869	980.27362	-727.74335	281.50146	982.65479	-733.00464	284.27682	1044.4648	-734.68555	265.60995	662.95056	-676.99103	222.25854	667.46637	-1241.3042	223.33113	659.79095	-1178.5614	221.12552	583.87531	-1180.4128	235.84526	1068.7072	-1186.4252	238.63737	1008.5129	-1201.4926	284.10071	1072.9652	-1195.6345
1435	7.165	96.249084	1439.2628	-894.07648	77.274574	1452.1144	-955.01117	118.05491	1424.6702	-1024.728	259.05627	597.29449	-2063.4502	279.82394	563.57947	156.467	486.49854	873.27179	-1000.3669	490.06308	874.73456	-928.02795	481.24774	885.00275	-963.71527	293.80347	1277.8878	-951.82062	187.75922	1158.4514	-952.13696	428.33447	1041.1902	-967.80859	182.70076	1180.1221	-1111.713	195.15636	1188.4207	-792.02856	405.80325	575.28284	-676.90979	401.38715	512.01678	-667.60406	362.88968	536.41589	-646.36688	350.46982	243.56642	-529.22528	387.22882	224.2597	-559.12317	357.70941	176.6591	-523.74207	294.06055	66.006897	-546.6051	350.71246	69.468849	-503.34311	356.12408	30.353382	-551.56415	207.30435	45.256268	-422.77539	274.36148	25.689581	-379.10086	227.51285	40.251869	-395.6329	402.96094	571.17346	-1239.7109	357.33783	534.1098	-1271.1753	395.7009	506.93512	-1250.8641	353.11823	274.96338	-1375.8102	361.29395	210.44763	-1380.818	390.01315	258.57016	-1346.3517	355.21265	69.431694	-1407.8295	284.50711	67.368202	-1379.1996	355.83768	30.959871	-1357.3105	289.06229	26.714922	-1536.313	227.33231	37.295147	-1508.8309	250.26315	34.564018	-1529.5027	330.84787	979.8208	-727.44745	281.00571	982.13519	-732.88239	283.70282	1043.9512	-734.57764	265.01443	662.42273	-676.85327	222.26398	666.75909	-1241.2739	223.37186	659.1084	-1178.5543	221.19345	583.13531	-1180.4226	235.55151	1067.9769	-1186.2518	238.51567	1007.7808	-1201.3708	283.80676	1072.3993	-1195.3414
1436	7.17	94.976036	1438.3121	-893.97046	76.110649	1450.9854	-954.94604	116.85572	1423.686	-1024.5706	258.96252	596.68591	-2063.6274	279.90778	563.0827	156.44948	486.89783	873.33331	-1000.1182	490.15994	874.95673	-927.84009	481.56787	885.06482	-963.55194	292.84671	1277.3254	-951.60406	187.1646	1157.5886	-951.94153	428.16187	1041.076	-967.6499	182.09468	1179.0225	-1111.327	194.5007	1187.5193	-791.83582	406.31305	575.14105	-676.78723	401.76059	511.86572	-667.40118	364.77716	536.76868	-645.57385	350.13986	242.68445	-529.77191	387.29672	224.29018	-558.93359	357.74979	176.61848	-523.61951	294.08224	66.029221	-546.52112	350.74487	69.47831	-503.31055	356.14282	30.383438	-551.53632	207.323	45.261398	-422.76266	274.31689	25.602945	-379.11588	227.55299	40.252117	-395.6167	402.92651	570.62537	-1239.4608	357.74969	534.26141	-1271.4375	395.66071	507.28433	-1250.6068	353.25003	274.98984	-1376.1088	361.38086	210.41444	-1381.0195	390.08566	258.59351	-1346.5828	355.27676	69.428925	-1407.8564	284.48306	67.414017	-1379.2609	355.86212	30.984608	-1357.3093	289.07904	26.73056	-1536.3158	227.34967	37.279194	-1508.8348	250.26685	34.568249	-1529.4935	330.40396	979.41211	-727.22687	280.60086	981.61877	-732.75214	283.18152	1043.3469	-734.46106	264.8959	661.87158	-676.74536	222.21948	666.12567	-1241.2631	223.42412	658.44409	-1178.5145	221.35959	582.45923	-1180.3617	235.3022	1067.2428	-1186.0968	238.3501	1007.1252	-1201.2375	283.70584	1071.5442	-1195.1049
1437	7.175	93.765732	1437.3038	-893.8689	74.869835	1449.9967	-954.82043	115.65158	1422.629	-1024.4836	258.53583	596.48041	-2063.7449	280.05072	562.62177	156.49048	487.29626	873.30896	-1000.0247	490.55798	874.90314	-927.75269	482.11996	884.87512	-963.50067	291.94226	1276.3851	-951.57349	186.61266	1156.662	-951.84851	427.98929	1040.9125	-967.51361	181.56769	1178.0886	-1111.1273	193.87328	1186.554	-791.76709	406.85461	575.07306	-676.66345	402.05212	511.73718	-667.25842	350.40436	530.53394	-662.65485	350.18591	242.69833	-529.60986	387.30023	224.35027	-558.80145	357.85461	176.66443	-523.4707	294.1214	66.753189	-547.08411	350.76056	69.25695	-503.08902	356.1478	30.380951	-551.51837	207.34563	45.274769	-422.74448	274.42929	25.790783	-379.09641	227.61249	40.281078	-395.62198	403.46191	570.4884	-1239.6935	358.16599	534.34967	-1271.6533	396.21201	507.27701	-1251.6149	353.35907	275.02759	-1376.3481	361.42319	210.46878	-1381.1549	390.20804	258.5835	-1346.7996	355.30438	69.467155	-1407.9143	284.51743	67.449966	-1379.3262	355.88181	30.968441	-1357.3356	289.09692	26.708141	-1536.3298	227.36749	37.310295	-1508.845	250.29639	34.570488	-1529.5032	330.06308	978.99823	-727.01892	280.25146	981.07745	-732.60303	282.69455	1042.9102	-734.3399	265.06595	661.27435	-676.65216	222.24765	665.41925	-1241.2148	223.47884	657.76459	-1178.4727	221.32324	581.66821	-1180.4935	235.01575	1066.5427	-1185.9498	238.20126	1006.3989	-1201.1407	283.37234	1070.9722	-1194.884
1438	7.18	92.642639	1436.3638	-893.72125	73.650093	1449.0162	-954.69812	114.52426	1421.6228	-1024.3436	259.27377	595.65356	-2063.594	280.17108	562.16321	156.51724	487.66971	873.3045	-999.94788	490.91617	874.86841	-927.63586	482.48175	884.75745	-963.44696	291.06296	1276.2477	-951.22107	186.14398	1155.8051	-951.69305	427.87393	1040.7188	-967.38391	180.99661	1177.2113	-1110.9841	193.24165	1185.6646	-791.57715	407.2695	574.94751	-676.58459	402.63321	511.22891	-666.75085	364.34671	536.34528	-645.74048	350.26596	242.70908	-529.43817	387.39465	224.3168	-558.64606	357.93512	176.68559	-523.33752	294.12494	66.799332	-547.02954	350.8302	69.465782	-503.18808	356.18262	30.371853	-551.49847	207.36142	45.296345	-422.72879	274.43219	25.462774	-379.28696	227.63911	40.311943	-395.60892	404.53909	570.91608	-1240.3092	358.53085	534.45264	-1271.9429	396.56125	507.26355	-1251.8751	353.49362	275.09573	-1376.6187	361.53381	210.47142	-1381.3479	390.26801	258.6189	-1347.0211	355.38232	69.452698	-1407.998	284.51508	67.536301	-1379.4091	355.90115	30.972818	-1357.3423	289.09741	26.708687	-1536.3433	227.39697	37.296429	-1508.8489	250.32156	34.550243	-1529.519	329.85992	978.59424	-726.85352	280.03049	980.5672	-732.43903	282.37421	1042.265	-734.22467	265.42651	660.69611	-676.56287	222.18704	664.81793	-1241.158	223.48994	657.12921	-1178.4048	221.44798	581.04712	-1180.3403	234.75679	1065.8175	-1185.8352	238.02187	1005.7498	-1200.9988	283.06372	1070.396	-1194.6387
